<?xml version="1.0" standalone="no"?>
<!DOCTYPE svg PUBLIC "-//W3C//DTD SVG 20010904//EN"
 "http://www.w3.org/TR/2001/REC-SVG-20010904/DTD/svg10.dtd">
<svg version="1.0" xmlns="http://www.w3.org/2000/svg"
 width="152.000000pt" height="152.000000pt" viewBox="0 0 152.000000 152.000000"
 preserveAspectRatio="xMidYMid meet">
<metadata>
Created by potrace 1.11, written by Peter Selinger 2001-2013
</metadata>
<g transform="translate(0.000000,152.000000) scale(0.100000,-0.100000)"
fill="#000000" stroke="none">
<path d="M718 1362 c-13 -5 -491 -399 -594 -488 -12 -11 -44 -37 -72 -59 -28
-22 -51 -46 -52 -54 0 -20 69 -101 87 -101 8 0 92 64 186 143 95 78 180 149
191 157 10 8 23 20 30 25 6 6 56 48 111 93 55 46 111 92 123 103 13 11 30 18
38 15 9 -3 157 -124 331 -268 173 -145 323 -264 333 -266 25 -4 94 81 85 105
-3 10 -38 44 -78 75 -40 32 -86 70 -104 85 l-32 28 1 198 c1 144 -2 201 -11
206 -16 10 -203 8 -218 -2 -9 -6 -13 -38 -13 -103 0 -52 -3 -94 -6 -94 -3 0
-11 6 -18 13 -7 6 -34 30 -61 52 -78 64 -120 100 -125 106 -3 3 -19 14 -37 23
-33 17 -66 19 -95 8z"/>
<path d="M510 919 c-135 -110 -256 -212 -270 -227 l-25 -27 1 -234 c1 -228 1
-235 23 -252 19 -15 45 -17 211 -18 l189 0 0 172 c0 95 0 177 1 182 0 8 142
12 227 6 9 -1 13 -47 15 -178 l3 -178 192 0 c166 0 195 2 209 17 15 14 17 46
17 258 0 132 -2 242 -4 243 -9 6 -116 93 -134 109 -18 15 -120 100 -330 271
-38 31 -72 57 -75 57 -3 0 -116 -90 -250 -201z"/>
</g>
</svg>
