<?xml version="1.0" standalone="no"?>
<!DOCTYPE svg PUBLIC "-//W3C//DTD SVG 20010904//EN"
 "http://www.w3.org/TR/2001/REC-SVG-20010904/DTD/svg10.dtd">
<svg version="1.0" xmlns="http://www.w3.org/2000/svg"
 width="596.000000pt" height="596.000000pt" viewBox="0 0 596.000000 596.000000"
 preserveAspectRatio="xMidYMid meet">
<metadata>
Created by potrace 1.11, written by Peter Selinger 2001-2013
</metadata>
<g transform="translate(0.000000,596.000000) scale(0.100000,-0.100000)"
fill="#000000" stroke="none">
<path d="M820 5950 c-8 -5 -38 -10 -67 -10 -42 0 -53 -4 -58 -19 -4 -13 -19
-21 -50 -25 -25 -4 -47 -11 -50 -17 -4 -5 -22 -16 -41 -24 -19 -8 -34 -19 -34
-24 0 -6 -16 -13 -35 -17 -25 -4 -35 -11 -35 -25 0 -13 -7 -19 -21 -19 -12 0
-23 -8 -26 -20 -3 -11 -13 -20 -23 -20 -10 0 -20 -9 -23 -20 -3 -11 -12 -20
-21 -20 -9 0 -16 -8 -16 -20 0 -12 -7 -20 -16 -20 -9 0 -18 -9 -21 -20 -3 -11
-12 -20 -19 -20 -8 0 -19 -11 -24 -25 -5 -14 -16 -25 -25 -25 -9 0 -15 -9 -15
-25 0 -13 -8 -32 -18 -42 -27 -27 -72 -119 -72 -148 0 -15 -6 -25 -14 -25 -10
0 -16 -19 -21 -62 -5 -40 -14 -67 -24 -75 -15 -10 -16 -189 -16 -2176 0 -1987
1 -2166 16 -2183 9 -11 20 -44 23 -76 5 -35 13 -58 22 -62 8 -3 14 -17 14 -31
0 -29 45 -121 72 -148 10 -10 18 -27 18 -38 0 -12 8 -23 20 -26 11 -3 20 -14
20 -25 0 -11 9 -22 20 -25 11 -3 20 -14 20 -24 0 -12 7 -19 19 -19 10 0 21 -9
24 -20 3 -11 12 -20 21 -20 9 0 16 -5 16 -11 0 -16 56 -69 73 -69 8 0 17 -9
20 -20 3 -11 14 -20 25 -20 10 0 31 -11 46 -25 15 -14 33 -25 40 -25 8 0 19
-7 26 -15 6 -7 32 -17 57 -21 24 -3 47 -12 50 -20 2 -7 29 -16 61 -20 32 -4
69 -15 84 -25 25 -18 92 -19 2162 -19 2148 0 2161 0 2186 31 3 4 33 10 67 14
36 4 64 12 67 20 2 7 23 16 45 20 22 4 45 13 52 21 6 8 17 14 25 14 7 0 25 11
40 25 15 14 38 25 50 25 15 0 24 6 24 15 0 9 11 20 25 25 14 5 25 16 25 25 0
8 9 15 20 15 13 0 20 7 20 20 0 13 7 20 20 20 13 0 20 7 20 20 0 12 7 20 16
20 9 0 18 9 21 19 3 11 13 21 24 24 11 3 19 14 19 26 0 14 6 21 19 21 14 0 21
10 25 35 4 19 11 35 16 35 13 0 70 121 70 149 0 14 7 25 20 28 17 5 20 14 20
64 0 32 4 61 10 64 14 9 14 4371 0 4380 -6 3 -10 31 -10 62 0 46 -3 56 -20 60
-12 3 -20 14 -20 26 0 26 -57 147 -70 147 -5 0 -12 16 -16 35 -3 20 -12 35
-20 35 -8 0 -19 11 -24 25 -5 14 -16 25 -25 25 -8 0 -15 9 -15 20 0 11 -6 20
-14 20 -8 0 -18 9 -21 20 -3 11 -15 20 -26 20 -10 0 -19 5 -19 11 0 13 -55 69
-69 69 -5 0 -12 9 -16 19 -3 12 -19 21 -40 25 -19 4 -35 11 -35 17 0 5 -15 16
-34 24 -19 8 -37 19 -40 24 -4 5 -24 12 -46 16 -24 4 -44 14 -50 26 -9 15 -22
19 -65 19 -29 0 -57 5 -60 10 -8 14 -4354 14 -4375 0z m2442 -1114 c8 -7 41
-17 73 -21 33 -4 71 -15 85 -25 14 -9 49 -20 78 -22 29 -3 60 -12 70 -22 10
-9 30 -16 44 -16 26 0 38 -16 38 -52 0 -22 -48 -78 -67 -78 -7 0 -13 -7 -13
-15 0 -8 -7 -15 -15 -15 -19 0 -67 -102 -73 -157 -3 -25 -11 -47 -18 -50 -9
-3 -14 -21 -14 -49 l0 -44 429 0 c400 0 433 1 493 20 36 11 91 20 131 20 l67
0 0 -157 c0 -194 -2 -203 -44 -203 -18 0 -38 6 -44 13 -10 9 -144 13 -587 15
-525 2 -575 1 -575 -14 0 -9 -9 -27 -19 -40 -11 -14 -22 -43 -26 -65 -4 -22
-13 -43 -20 -45 -7 -3 -16 -24 -19 -47 -4 -23 -13 -51 -20 -62 -7 -11 -16 -37
-20 -58 -4 -21 -14 -41 -22 -44 -8 -3 -17 -23 -20 -44 -4 -21 -14 -48 -24 -59
-10 -11 -20 -38 -24 -59 -3 -21 -13 -41 -21 -45 -10 -3 -15 -19 -15 -42 0 -27
-5 -37 -19 -41 -22 -6 -33 -56 -20 -90 8 -22 12 -23 161 -23 145 0 155 1 182
23 l29 24 -11 184 c-6 101 -16 224 -23 272 -9 68 -9 91 0 100 19 19 145 10
196 -13 30 -14 65 -20 112 -20 43 0 76 -5 89 -14 11 -8 36 -18 55 -23 29 -8
34 -14 37 -41 3 -24 -4 -40 -25 -62 -15 -17 -33 -30 -39 -30 -21 0 -47 -114
-52 -227 -4 -106 -4 -113 19 -142 l24 -30 131 0 c72 -1 175 6 230 14 138 21
290 20 298 -1 8 -20 8 -272 0 -301 l-6 -21 -318 5 c-245 5 -325 3 -349 -7
l-30 -12 -3 -650 c-3 -605 -4 -650 -20 -662 -10 -7 -18 -20 -18 -29 0 -9 -9
-18 -19 -22 -11 -3 -22 -12 -25 -20 -3 -8 -13 -15 -22 -15 -9 0 -22 -8 -29
-17 -8 -11 -35 -19 -84 -24 -39 -4 -86 -15 -103 -23 -23 -12 -64 -16 -163 -16
-143 0 -145 1 -145 54 0 13 -9 35 -20 49 -11 14 -20 37 -20 51 0 14 -9 34 -20
44 -11 9 -23 34 -27 54 -3 21 -11 38 -18 38 -7 0 -16 16 -20 36 -3 20 -13 44
-21 52 -26 25 0 36 83 34 49 -2 98 -10 131 -22 31 -12 77 -20 113 -20 54 0 60
2 69 24 5 13 15 26 22 28 19 7 25 1043 6 1065 -19 23 -582 15 -618 -8 -14 -9
-44 -19 -68 -23 -39 -6 -43 -4 -52 19 -5 14 -14 25 -19 25 -5 0 -13 15 -16 33
-4 17 -16 40 -26 50 -11 10 -19 31 -19 47 0 20 -6 31 -19 35 -14 4 -22 19 -27
50 -8 54 -1 75 25 75 10 0 21 9 24 20 3 11 12 20 20 20 8 0 17 9 20 20 3 11
12 20 21 20 9 0 16 8 16 20 0 10 9 24 20 30 10 6 22 26 26 45 3 19 10 35 14
35 5 0 16 25 25 55 8 30 19 55 24 55 5 0 11 19 15 42 4 24 15 47 26 55 13 9
20 26 20 44 0 17 9 42 20 56 11 14 20 37 20 50 0 13 9 41 20 61 10 20 22 54
25 75 3 21 13 41 21 44 7 3 14 14 14 24 0 18 -10 19 -155 19 -109 0 -175 -5
-219 -16 l-63 -16 -27 25 -27 25 3 153 3 154 80 0 c45 -1 106 -8 140 -18 67
-19 345 -25 345 -7 0 6 10 20 21 31 14 14 24 40 28 78 4 31 14 67 23 81 9 14
18 56 21 94 3 38 10 72 16 75 6 4 14 39 17 77 10 137 9 134 59 134 24 0 50 -6
57 -14z m-1517 -207 c54 -12 368 -11 436 0 30 6 119 11 199 13 l145 3 3 -28
c2 -15 -5 -43 -16 -61 -11 -18 -23 -52 -27 -74 -3 -22 -13 -43 -21 -46 -8 -3
-14 -18 -14 -34 0 -49 -12 -92 -25 -92 -13 0 -25 -43 -25 -88 0 -14 -7 -33
-16 -43 -8 -9 -19 -41 -23 -71 -4 -30 -15 -65 -24 -78 -9 -14 -17 -37 -17 -52
0 -31 -19 -78 -32 -78 -4 0 -8 -15 -8 -32 0 -18 -8 -46 -18 -63 -10 -16 -21
-47 -25 -69 -3 -21 -12 -46 -20 -55 -8 -9 -17 -36 -20 -61 -3 -24 -13 -49 -21
-56 -23 -16 -20 -61 4 -74 11 -6 20 -20 20 -30 0 -11 7 -20 15 -20 9 0 18 -8
22 -17 7 -19 23 -40 60 -75 12 -11 25 -34 28 -49 4 -16 12 -29 20 -29 7 0 16
-15 19 -34 4 -19 13 -37 21 -40 8 -3 15 -13 15 -22 0 -9 11 -29 25 -46 14 -16
25 -42 25 -58 0 -15 7 -33 15 -40 8 -7 18 -34 21 -62 4 -27 14 -57 23 -65 14
-14 16 -46 16 -214 0 -173 -2 -199 -17 -216 -10 -11 -18 -27 -18 -36 0 -9 -9
-26 -20 -37 -11 -11 -20 -26 -20 -32 0 -18 -85 -98 -104 -98 -8 0 -18 -9 -21
-20 -3 -11 -14 -20 -23 -20 -10 0 -25 -9 -35 -20 -11 -13 -29 -20 -52 -20 -21
0 -43 -8 -55 -20 -11 -11 -40 -22 -72 -26 -29 -4 -60 -12 -68 -19 -8 -7 -45
-15 -82 -18 -63 -4 -67 -3 -86 22 -11 15 -23 42 -26 61 -13 61 -17 69 -37 75
-10 4 -19 13 -19 21 0 8 -5 14 -11 14 -14 0 -6 -515 11 -698 10 -102 11 -148
3 -160 -9 -15 -33 -17 -169 -20 -158 -3 -233 7 -235 32 -5 42 5 144 14 155 17
20 22 2778 6 2871 -21 117 -22 152 -8 162 16 10 304 0 364 -13z m1231 -1924
c4 -8 16 -15 29 -15 14 0 25 -7 28 -19 3 -13 17 -22 41 -26 20 -4 36 -13 36
-20 0 -8 17 -16 40 -20 25 -4 40 -12 40 -21 0 -8 7 -14 16 -14 8 0 29 -13 46
-30 16 -16 36 -30 43 -30 7 0 16 -14 20 -30 8 -38 -15 -77 -50 -86 -14 -3 -25
-12 -25 -20 0 -8 -9 -14 -21 -14 -12 0 -23 -8 -26 -20 -3 -11 -12 -20 -19 -20
-8 0 -19 -11 -24 -25 -5 -14 -14 -25 -20 -25 -6 0 -15 -11 -20 -25 -5 -14 -14
-25 -19 -25 -5 0 -15 -16 -22 -35 -7 -19 -18 -35 -24 -35 -7 0 -17 -11 -23
-25 -6 -14 -16 -25 -22 -25 -5 0 -10 -6 -10 -14 0 -7 -7 -20 -17 -27 -9 -8
-22 -29 -30 -46 -7 -18 -20 -33 -28 -33 -8 0 -15 -9 -15 -20 0 -11 -7 -20 -15
-20 -9 0 -19 -8 -22 -17 -8 -22 -58 -73 -71 -73 -5 0 -12 -9 -15 -20 -3 -11
-12 -20 -21 -20 -9 0 -16 -7 -16 -16 0 -8 -22 -38 -50 -66 -27 -28 -50 -54
-50 -59 0 -5 -9 -13 -21 -20 -27 -14 -89 -3 -89 17 0 8 -11 19 -25 24 -14 5
-25 16 -25 25 0 8 -7 15 -15 15 -8 0 -19 9 -25 20 -6 11 -19 20 -30 20 -10 0
-26 8 -36 17 -9 10 -35 27 -58 38 -69 34 -76 39 -76 52 0 7 5 13 10 13 6 0 16
11 22 25 6 14 19 25 29 25 10 0 22 6 26 14 4 7 23 21 41 30 17 9 32 21 32 26
0 6 9 10 20 10 11 0 20 4 20 8 0 14 105 122 118 122 7 0 12 9 12 20 0 13 7 20
20 20 13 0 20 7 20 20 0 11 7 20 15 20 8 0 21 16 29 35 8 19 20 35 25 35 6 0
13 11 17 25 3 14 12 25 20 25 8 0 14 9 14 21 0 12 8 23 19 26 12 3 21 17 26
40 4 22 13 37 25 40 12 3 21 18 25 43 4 21 13 41 21 44 8 3 14 14 14 24 0 11
9 31 20 45 11 14 20 32 20 41 0 8 12 21 28 29 36 20 42 20 48 2z m1174 -40 c5
-14 16 -25 25 -25 8 0 15 -6 15 -14 0 -7 6 -19 14 -25 8 -7 22 -27 31 -46 9
-19 20 -35 25 -35 5 0 11 -9 15 -19 3 -10 15 -21 25 -24 11 -3 20 -12 20 -21
0 -9 7 -16 15 -16 8 0 15 -6 15 -14 0 -7 11 -25 24 -39 14 -15 27 -36 31 -47
3 -11 12 -20 20 -20 7 0 16 -11 19 -25 4 -14 13 -25 21 -25 8 0 15 -7 15 -16
0 -21 58 -111 76 -118 8 -3 14 -12 14 -19 0 -8 9 -22 20 -32 11 -10 20 -26 20
-36 0 -10 9 -23 20 -29 11 -6 20 -16 20 -23 0 -7 9 -20 20 -30 22 -19 28 -77
7 -77 -7 0 -18 -9 -25 -20 -7 -11 -19 -20 -27 -20 -8 0 -15 -6 -15 -14 0 -8
-9 -17 -19 -21 -11 -3 -23 -15 -26 -26 -4 -10 -15 -19 -26 -19 -10 0 -19 -6
-19 -13 0 -7 -16 -21 -35 -30 -19 -9 -35 -22 -35 -27 0 -7 -15 -10 -37 -8 -33
3 -41 8 -56 41 -10 20 -23 37 -28 37 -5 0 -9 9 -9 21 0 12 -8 23 -19 26 -12 3
-23 17 -26 34 -4 16 -15 34 -26 39 -10 6 -19 20 -19 30 0 11 -6 20 -14 20 -8
0 -17 12 -21 27 -3 15 -15 33 -26 41 -10 7 -19 20 -19 27 0 8 -9 20 -20 27
-11 7 -20 19 -20 26 0 7 -7 15 -15 18 -8 3 -20 21 -27 40 -6 19 -20 36 -30 40
-10 3 -18 14 -18 25 0 11 -7 19 -16 19 -9 0 -18 9 -21 20 -3 11 -12 20 -19 20
-8 0 -14 8 -14 18 0 10 -13 31 -30 47 -16 16 -30 35 -30 42 0 7 -5 13 -10 13
-6 0 -15 11 -20 25 -5 14 -14 25 -20 25 -5 0 -10 9 -10 20 0 11 4 20 9 20 5 0
12 9 16 19 3 10 15 21 25 24 11 3 20 12 20 21 0 9 7 16 15 16 8 0 20 9 27 20
7 11 18 20 24 20 6 0 21 11 34 25 13 14 31 25 41 25 9 0 19 9 22 20 4 15 14
20 41 20 30 0 38 -5 46 -25z"/>
<path d="M1768 4309 c-17 -9 -18 -39 -18 -389 0 -247 4 -380 10 -380 6 0 10 7
10 15 0 8 11 22 24 30 17 11 26 29 30 60 4 24 13 46 21 49 8 3 15 18 15 33 0
16 7 39 16 52 9 13 21 41 26 64 5 22 16 45 24 51 8 6 17 36 21 66 3 30 12 58
18 62 7 4 16 34 20 65 3 32 13 69 22 81 8 14 15 50 16 85 l2 62 -120 2 c-69 2
-127 -2 -137 -8z"/>
<path d="M1752 2978 l3 -453 55 -18 c30 -10 87 -21 127 -24 62 -5 77 -3 108
16 20 11 43 21 51 21 8 0 14 9 14 21 0 12 8 23 20 26 19 5 20 14 20 142 0 119
-3 140 -20 166 -11 17 -20 45 -20 63 0 20 -6 35 -15 38 -8 4 -18 24 -22 46 -4
27 -12 42 -24 45 -10 3 -20 18 -24 39 -3 20 -12 34 -20 34 -8 0 -15 8 -15 19
0 10 -7 25 -17 32 -9 8 -22 29 -30 47 -7 17 -20 32 -28 32 -8 0 -15 9 -15 19
0 11 -9 23 -20 26 -11 3 -20 13 -20 21 0 8 -7 17 -15 20 -8 3 -17 14 -20 25
-4 10 -12 19 -19 19 -8 0 -19 7 -26 15 -7 8 -16 15 -21 15 -5 0 -8 -194 -7
-452z"/>
</g>
</svg>
